<svg width="24" height="24" fill="none" xmlns="http://www.w3.org/2000/svg"><circle cx="12" cy="12" r="12" fill="#1265BA"/><path fill-rule="evenodd" clip-rule="evenodd" d="M15.95 7.847l1.992-1.015 2.335-1.191v1.43l-2.356 1.2-1.14.58L6.64 14.02l-.565.288-.574.293-1.77.902v-1.43l.601-.307a1.273 1.273 0 0 0 .692-1.23 7 7 0 0 1 11.093-6.2l-.17.087-1.14.581a5.732 5.732 0 0 0-8.478 5.745l9.621-4.9zm-8.735 7.305l13.062-6.65v1.424l-.602.307a1.274 1.274 0 0 0-.691 1.23 7 7 0 0 1-11.093 6.2l1.236-.629.07-.037a5.731 5.731 0 0 0 8.486-5.749l-9.631 4.908-1.993 1.015-2.329 1.187v-1.43l2.345-1.194 1.14-.582z" fill="#fff"/></svg>