<svg width="20" height="20" xmlns="http://www.w3.org/2000/svg"><g fill="none" fill-rule="evenodd"><circle fill="#1265BA" fill-rule="nonzero" cx="10" cy="10" r="10"/><path d="M9.715 16.211c-.152-.015-.305-.03-.457-.048a6.143 6.143 0 0 1-2.328-.77c-.01-.005-.02-.014-.04-.028 1.245-.932 2.485-1.858 3.732-2.79l.375.366c.21.204.42.406.624.614.051.05.088.05.147.02a4.037 4.037 0 0 0 1.54-1.35l.06-.09c.018.02.035.037.048.055.433.577.866 1.155 1.3 1.73.038.05.034.079-.006.124-1.007 1.144-2.258 1.849-3.766 2.09-.19.03-.383.042-.574.063-.026.002-.051.01-.076.014h-.579m.548-12.422c.105.01.21.022.316.031.89.085 1.723.349 2.498.79l.04.029L9.322 7.36l-.147-.14c-.266-.26-.534-.518-.799-.78-.042-.042-.074-.047-.128-.02a4.036 4.036 0 0 0-1.564 1.369l-.056.084-1.394-1.856c.14-.15.27-.298.411-.435A6.16 6.16 0 0 1 8.912 3.89c.243-.044.49-.059.736-.088.028-.003.056-.01.083-.014h.532M4.612 6.914l2.82 3.697-.569.584c-.141.145-.282.292-.427.435-.04.04-.042.071-.017.121a4.029 4.029 0 0 0 1.426 1.604c.004.002.005.008.016.027l-1.842 1.381c-1.101-.948-1.815-2.116-2.102-3.533-.307-1.517-.058-2.95.696-4.316h-.001m8.004 2.467l.518-.538c.145-.15.287-.302.435-.448.046-.046.046-.08.019-.135a4.031 4.031 0 0 0-1.384-1.58c-.02-.014-.041-.03-.077-.054l1.852-1.39c1.049.898 1.745 2.005 2.064 3.34.4 1.667.044 3.316-.647 4.477l-2.78-3.672" fill="#FFF"/></g></svg>