<svg width="20" height="20" xmlns="http://www.w3.org/2000/svg"><path d="M10 0c5.523 0 10 4.477 10 10s-4.477 10-10 10S0 15.523 0 10 4.477 0 10 0zm-.673 3.25h-1.5l-.001 1.636H6.75v10.228l1.076-.001v1.637h1.5v-1.637h1.193v1.637h1.5v-1.637h.058c1.754 0 3.173-1.436 3.173-3.204 0-1.34-.816-2.491-1.977-2.969l-.024-.008c.245-.404.386-.879.386-1.387a2.66 2.66 0 0 0-1.615-2.452V3.25h-1.5l-.001 1.636H9.326V3.25zm2.75 6.955c.922 0 1.673.76 1.673 1.704 0 .894-.674 1.624-1.529 1.698l-.144.007H8.25v-3.41h3.827zM11 6.386c.624 0 1.135.517 1.135 1.16a1.15 1.15 0 0 1-1.012 1.152L11 8.705l-2.75-.001V6.386H11z" fill="#1265BA" fill-rule="evenodd"/></svg>