<svg xmlns="http://www.w3.org/2000/svg" width="20" height="20"><g fill="none"><circle cx="9.973" cy="9.973" r="9.968" fill="#1265BA"/><path fill="#FFF" d="M16.691 8.118h-1.353S14.28 4.5 9.721 4.5H5.309v3.618H3.75v1.294h1.53v1.264H3.75v1.295h1.53v3.617h4.44s4.206.118 5.618-3.617h1.353v-1.295h-1.117s.058-.352.058-.647c0-.294-.058-.647-.058-.647h1.117V8.118zM6.603 5.706h3.206c2.676 0 3.794 1.618 4.206 2.412H6.603V5.706zm3.235 8.676H6.603v-2.411h7.412c-1.236 2.47-4.177 2.411-4.177 2.411zm-3.235-3.706V9.382h7.765c.03.177.03.412.03.647 0 .236 0 .442-.03.647H6.603z"/></g></svg>