<?xml version="1.0" encoding="UTF-8"?>
<svg width="161px" height="105px" viewBox="0 0 161 105" version="1.1" xmlns="http://www.w3.org/2000/svg" xmlns:xlink="http://www.w3.org/1999/xlink">
    <!-- Generator: Sketch 53.2 (72643) - https://sketchapp.com -->
    <title>logo stacked  white bg</title>
    <desc>Created with Sketch.</desc>
    <g id="Sign-in-/-Sign-up" stroke="none" stroke-width="1" fill="none" fill-rule="evenodd">
        <g id="Sign-up-alt-01" transform="translate(-1034.000000, -158.000000)" fill-rule="nonzero">
            <g id="Group-3" transform="translate(933.000000, 158.000000)">
                <g id="logo-stacked--white-bg" transform="translate(101.000000, 0.000000)">
                    <g id="Group" transform="translate(39.235294, 0.000000)">
                        <polygon id="Shape" fill="#000000" opacity="0.3" points="76.8921569 35.9423077 5.59215686 35.9423077 0.360784314 45.9487179 82.1235294 45.9487179"></polygon>
                        <ellipse id="Oval" fill="#F9A524" cx="41.2196078" cy="30.6923077" rx="30.6666667" ry="30.5128205"></ellipse>
                        <path d="M14.7019608,45.9487179 C19.9784314,55.0576923 29.9,61.2051282 41.2647059,61.2051282 C52.6294118,61.2051282 62.5058824,55.0576923 67.827451,45.9487179 L14.7019608,45.9487179 Z" id="Shape" fill="#F79225"></path>
                    </g>
                    <g id="Group" transform="translate(0.000000, 78.974359)" fill="#1E5184">
                        <path d="M24.0823529,5.83333333 L19.7980392,8.43589744 C18.354902,6.28205128 16.145098,5.02564103 13.3490196,5.02564103 C8.83921569,5.02564103 5.45686275,8.34615385 5.45686275,13.1474359 C5.45686275,18.1282051 8.92941176,21.2692308 13.3490196,21.2692308 C16.145098,21.2692308 18.354902,20.0576923 19.8431373,17.8589744 L23.9019608,20.775641 C21.6470588,24.0064103 17.9490196,26.025641 13.3490196,26.025641 C5.6372549,26.025641 0.270588235,20.5961538 0.270588235,13.1474359 C0.270588235,5.69871795 5.68235294,0.269230769 13.3490196,0.269230769 C18.0392157,0.269230769 22.0529412,2.37820513 24.0823529,5.83333333 Z" id="Shape"></path>
                        <path d="M52.9,13.1474359 C52.9,20.5961538 47.4431373,26.025641 39.7764706,26.025641 C32.0647059,26.025641 26.6980392,20.5961538 26.6980392,13.1474359 C26.6980392,5.69871795 32.1098039,0.269230769 39.7764706,0.269230769 C47.4882353,0.269230769 52.9,5.74358974 52.9,13.1474359 Z M31.8843137,13.1474359 C31.8843137,17.9487179 35.2215686,21.2692308 39.7764706,21.2692308 C44.3764706,21.2692308 47.6686275,17.9487179 47.6686275,13.1474359 C47.6686275,8.34615385 44.3764706,5.02564103 39.7764706,5.02564103 C35.2215686,5.02564103 31.8843137,8.34615385 31.8843137,13.1474359 Z" id="Shape"></path>
                        <polygon id="Shape" points="56.8235294 25.5769231 56.8235294 0.762820513 61.7843137 0.762820513 61.7843137 25.5769231"></polygon>
                        <polygon id="Shape" points="85.1 25.5769231 72.427451 8.97435897 72.427451 25.5769231 67.4666667 25.5769231 67.4666667 0.762820513 72.1117647 0.762820513 84.7843137 17.3653846 84.7843137 0.762820513 89.7901961 0.762820513 89.7901961 25.5769231"></polygon>
                        <path d="M101.109804,26.025641 C97.0058824,26.025641 94.4803922,24.2307692 93.127451,22.5705128 L96.0137255,18.9807692 C97.0058824,20.1923077 98.5843137,21.2692308 100.884314,21.2692308 C103.5,21.2692308 105.078431,19.6538462 105.078431,16.0641026 L105.078431,0.762820513 L110.039216,0.762820513 L110.039216,16.5576923 C110.039216,22.75 106.296078,26.025641 101.109804,26.025641 Z" id="Shape"></path>
                        <path d="M132.407843,25.5769231 L130.243137,19.7884615 L119.6,19.7884615 L117.435294,25.5769231 L112.24902,25.5769231 L121.945098,0.762820513 L127.988235,0.762820513 L137.684314,25.5769231 L132.407843,25.5769231 Z M128.529412,15.2564103 L124.921569,5.65384615 L121.313725,15.2564103 L128.529412,15.2564103 Z" id="Shape"></path>
                        <path d="M160.639216,8.30128205 C160.639216,12.3846154 157.798039,15.1666667 152.972549,15.6153846 L160.639216,25.5769231 L154.596078,25.5769231 L147.335294,15.7051282 L145.892157,15.7051282 L145.892157,25.5769231 L140.931373,25.5769231 L140.931373,0.762820513 L151.484314,0.762820513 C157.437255,0.762820513 160.639216,3.54487179 160.639216,8.30128205 Z M145.892157,11.3974359 L151.394118,11.3974359 C154.1,11.3974359 155.498039,10.4102564 155.498039,8.30128205 C155.498039,6.23717949 154.054902,5.29487179 151.394118,5.29487179 L145.892157,5.29487179 L145.892157,11.3974359 Z" id="Shape"></path>
                    </g>
                </g>
            </g>
        </g>
    </g>
</svg>